#!OML:ASF I:\golf\golf\golf 2\Subject 1\2002-09-07\Subject1.ASF
:FULLY-SPECIFIED
:DEGREES
59
root -3.75163 18.0612 -7.55589 6.66632 7.31157 -6.67659
lowerback -4.20725 0.788044 0.75125
upperback -0.531673 0.935128 4.68451
thorax 1.74701 0.463633 4.46895
lowerneck -20.3706 -0.192986 0.552336
upperneck 30.9225 2.22286 -7.5743
head 14.0991 -0.0291255 -2.75552
rclavicle -3.28989e-014 1.19271e-015
rhumerus -26.9626 -12.8317 -76.7121
rradius 24.8298
rwrist -8.97509
rhand -22.7441 14.0792
rfingers 7.12502
rthumb 3.69019 -15.8686
lclavicle -3.28989e-014 1.19271e-015
lhumerus -30.7582 12.8174 81.7488
lradius 22.5634
lwrist 1.2685
lhand -10.8324 33.0445
lfingers 7.12502
lthumb 15.1819 62.4676
rfemur -9.86953 0.603804 26.3872
rtibia 21.6477
rfoot -13.309 -7.92384
rtoes 3.96541
lfemur -15.0367 6.88818 -10.5847
ltibia 31.1828
lfoot -15.562 2.90927
ltoes -9.70475
60
root -3.72688 18.0586 -7.55385 6.69305 7.32626 -6.68548
lowerback -4.3165 0.822904 0.751175
upperback -0.44689 0.973784 4.69869
thorax 1.89264 0.481016 4.48975
lowerneck -20.4658 -0.0440944 0.598133
upperneck 31.7765 2.58937 -7.82525
head 14.5304 0.0857372 -2.83822
rclavicle 7.25564e-015 -1.51076e-014
rhumerus -26.858 -12.8721 -76.6418
rradius 24.6986
rwrist -8.90016
rhand -22.9671 14.121
rfingers 7.12502
rthumb 3.4749 -15.8304
lclavicle 7.25564e-015 -1.51076e-014
lhumerus -30.6221 12.9518 81.7941
lradius 22.5924
lwrist 1.18626
lhand -10.8465 32.721
lfingers 7.12502
lthumb 15.1683 62.1451
rfemur -9.87937 0.665162 26.3101
rtibia 21.6549
rfoot -13.3474 -7.95764
rtoes 4.14704
lfemur -15.0426 6.86345 -10.653
ltibia 31.1663
lfoot -15.5805 2.97048
ltoes -10.9589
61
root -3.70247 18.0571 -7.54864 6.60427 7.34304 -6.63841
lowerback -4.25232 0.840504 0.612171
upperback -0.346352 1.00165 4.70123
thorax 1.95586 0.492405 4.57317
lowerneck -20.6026 0.147118 0.830905
upperneck 32.6223 2.97852 -8.14142
head 14.9855 0.222547 -2.98036
rclavicle -3.57315e-014 -1.43125e-014
rhumerus -26.7178 -12.9264 -76.5821
rradius 24.513
rwrist -8.85202
rhand -22.9243 14.2799
rfingers 7.12502
rthumb 3.51619 -15.6708
lclavicle -3.57315e-014 -1.43125e-014
lhumerus -30.4993 12.768 81.9292
lradius 22.7259
lwrist 1.45602
lhand -10.9271 32.7033
lfingers 7.12502
lthumb 15.0907 62.1332
rfemur -9.7297 0.771853 26.1765
rtibia 21.6594
rfoot -13.4128 -8.04666
rtoes 4.33328
lfemur -14.8534 6.79322 -10.7485
ltibia 31.0942
lfoot -15.6183 2.88679
ltoes -10.5824
62
root -3.6745 18.0559 -7.54403 6.52784 7.38619 -6.60708
lowerback -3.98753 0.858608 0.683463
upperback -0.421987 1.03655 4.61453
thorax 1.7296 0.513315 4.43653
lowerneck -20.4362 0.332708 1.06371
upperneck 33.3949 3.32672 -8.38104
head 15.3451 0.360106 -3.09372
rclavicle 1.27222e-014 -1.15295e-014
rhumerus -26.845 -13.0348 -76.5763
rradius 24.2956
rwrist -8.69295
rhand -23.0161 14.3356
rfingers 7.12502
rthumb 3.42756 -15.6165
lclavicle 1.27222e-014 -1.15295e-014
lhumerus -30.6485 12.4387 81.9613
lradius 22.9272
lwrist 1.66412
lhand -10.8701 32.8602
lfingers 7.12502
lthumb 15.1456 62.2859
rfemur -9.59775 0.845072 26.0499
rtibia 21.6494
rfoot -13.4531 -8.20117
rtoes 4.09262
lfemur -14.6735 6.70278 -10.8235
ltibia 30.983
lfoot -15.7223 2.63963
ltoes -9.15753
63
root -3.6462 18.0517 -7.5396 6.55445 7.37355 -6.50337
lowerback -4.25156 0.920421 0.571752
upperback -0.270448 1.10923 4.58804
thorax 2.02704 0.54488 4.48494
lowerneck -20.3137 0.441278 1.02538
upperneck 34.0093 3.61798 -8.51665
head 15.6388 0.454459 -3.11971
rclavicle -3.27995e-015 -3.81667e-014
rhumerus -26.7126 -13.1662 -76.4944
rradius 24.204
rwrist -8.59906
rhand -23.2665 14.128
rfingers 7.12502
rthumb 3.1857 -15.8279
lclavicle -3.27995e-015 -3.81667e-014
lhumerus -30.4219 12.3449 82.1569
lradius 23.0575
lwrist 1.63691
lhand -10.6771 32.8898
lfingers 7.12502
lthumb 15.3315 62.3014
rfemur -9.56746 0.850106 25.8429
rtibia 21.6241
rfoot -13.3993 -8.31548
rtoes 3.21855
lfemur -14.5567 6.55099 -10.9995
ltibia 30.8546
lfoot -15.9416 2.61318
ltoes -8.79134
64
root -3.6167 18.0496 -7.53575 6.60608 7.21732 -6.46102
lowerback -4.48208 1.015 0.436841
upperback -0.134774 1.22842 4.62315
thorax 2.28403 0.599334 4.61396
lowerneck -20.2609 0.586228 0.947988
upperneck 34.7227 3.99837 -8.65868
head 16.0125 0.576154 -3.1318
rclavicle -2.95692e-014 -3.4191e-014
rhumerus -26.6389 -13.3235 -76.333
rradius 24.2216
rwrist -8.50005
rhand -23.3783 14.0781
rfingers 7.12502
rthumb 3.07781 -15.8794
lclavicle -2.95692e-014 -3.4191e-014
lhumerus -30.2344 12.2517 82.3813
lradius 23.236
lwrist 1.8847
lhand -10.6584 32.8351
lfingers 7.12502
lthumb 15.3496 62.2454
rfemur -9.59927 0.939915 25.6811
rtibia 21.6408
rfoot -13.3979 -8.31282
rtoes 2.67986
lfemur -14.4363 6.47001 -11.1408
ltibia 30.6979
lfoot -16.1532 2.77181
ltoes -8.96166
65
root -3.58268 18.0505 -7.53554 6.59321 7.09925 -6.5283
lowerback -4.2931 1.07325 0.706726
upperback -0.153331 1.30162 4.52344
thorax 2.16145 0.640364 4.35521
lowerneck -20.1531 0.813422 1.0774
upperneck 35.4458 4.40949 -8.7566
head 16.3915 0.744485 -3.15653
rclavicle -6.60959e-015 5.1684e-015
rhumerus -26.7165 -13.6046 -76.3566
rradius 24.1545
rwrist -8.2928
rhand -23.4048 14.1731
rfingers 7.12502
rthumb 3.05215 -15.7848
lclavicle -6.60959e-015 5.1684e-015
lhumerus -30.2745 12.0845 82.3025
lradius 23.4427
lwrist 2.2231
lhand -10.7268 32.6895
lfingers 7.12502
lthumb 15.2836 62.1048
rfemur -9.63571 1.05451 25.616
rtibia 21.7324
rfoot -13.5036 -8.26206
rtoes 3.13763
lfemur -14.2691 6.42722 -11.1679
ltibia 30.4858
lfoot -16.2777 2.87646
ltoes -9.3819
66
root -3.55191 18.0462 -7.53164 6.54518 7.15211 -6.54858
lowerback -4.27036 1.07914 0.738478
upperback -0.0785669 1.3053 4.53288
thorax 2.22605 0.641312 4.34821
lowerneck -19.9766 0.961051 1.09751
upperneck 35.9761 4.73805 -8.88507
head 16.6568 0.863168 -3.18102
rclavicle -1.93815e-015 -1.43125e-014
rhumerus -26.6512 -13.6613 -76.3085
rradius 24.0608
rwrist -8.33792
rhand -23.5546 14.1036
rfingers 7.12502
rthumb 2.90754 -15.8563
lclavicle -1.93815e-015 -1.43125e-014
lhumerus -30.2675 11.9546 82.4316
lradius 23.7313
lwrist 2.44365
lhand -10.6573 32.7324
lfingers 7.12502
lthumb 15.3506 62.1425
rfemur -9.62145 1.00762 25.5415
rtibia 21.8677
rfoot -13.6243 -8.3161
rtoes 3.20097
lfemur -14.0219 6.35897 -11.2027
ltibia 30.2171
lfoot -16.4606 2.86462
ltoes -9.8586
67
root -3.52452 18.0419 -7.52109 6.50453 7.18839 -6.49196
lowerback -4.4453 1.09123 0.495219
upperback 0.0800779 1.31938 4.62117
thorax 2.47962 0.641443 4.58787
lowerneck -19.8036 1.08558 1.02659
upperneck 36.447 5.07431 -9.03486
head 16.8981 0.969749 -3.19482
rclavicle 2.55935e-014 4.33351e-014
rhumerus -26.5149 -13.5914 -76.1669
rradius 23.9934
rwrist -8.53882
rhand -23.7547 14.1493
rfingers 7.12502
rthumb 2.71426 -15.8132
lclavicle 2.55935e-014 4.33351e-014
lhumerus -30.2002 11.781 82.7356
lradius 24.0776
lwrist 2.71813
lhand -10.6947 32.8806
lfingers 7.12502
lthumb 15.3146 62.2936
rfemur -9.57396 0.999451 25.4036
rtibia 22.0192
rfoot -13.7386 -8.44273
rtoes 2.68911
lfemur -13.7135 6.34498 -11.309
ltibia 29.9046
lfoot -16.7408 2.77303
ltoes -9.53398
